<svg t="1735783921053" class="icon" viewBox="0 0 1024 1024" version="1.1" xmlns="http://www.w3.org/2000/svg" p-id="11454" width="200" height="200"><path d="M921.90208 468.59776h-172.29824c-9.40032 0-18.40128 3.79904-25.00096 10.50112s-10.30144 15.69792-10.30144 25.09824v11.10016c0 19.59936 15.8976 35.50208 35.39968 35.50208h172.20096c19.50208 0 35.3024-15.8976 35.3024-35.50208v-11.10016c0-9.40032-3.70176-18.40128-10.30144-25.09824s-15.60064-10.50112-25.00096-10.50112z m-399.50336-304.69632c-53.60128 42.5984-165.69856 102.2976-246.2976 159.80032h-0.1024c-0.90112 0.59904-1.80224 3.79904-2.80064 4.3008-9.4976 5.4016-13.7984 20.10112-65.60256 20.10112H106.5984c-25.99936 0-41.99936 12.20096-41.99936 39.59808v243.3024c0 27.40224 14.69952 40.89856 41.99936 40.89856h101.4016c51.50208 0.1024 55.70048 14.80192 65.19808 20.10112 0.90112 0.50176 1.80224 3.70176 2.69824 4.3008h0.1024c78.19776 57.4976 191.0016 121.79968 246.4 162.69824 16.70144 12.29824 72.09984 33.89952 72.09984-42.10176V202.90048c0-76.09856-55.90016-51.79904-72.09984-38.99904z m159.0016 167.79776c9.20064 16.1024 27.29984 20.1984 40.4992 9.00096l141.50144-119.30112c13.30176-11.10016 16.50176-33.19808 7.3984-49.39776l-5.20192-9.09824c-9.09824-16.1024-27.29984-20.10112-40.4992-9.00096L683.5968 273.2032c-13.19936 11.20256-16.50176 33.19808-7.3984 49.39776l5.20192 9.09824z m40.40192 347.40224c-13.19936-11.10016-31.29856-6.99904-40.40192 9.00096l-5.20192 9.09824c-9.09824 16.1024-5.80096 38.20032 7.3984 49.39776l141.50144 119.3984c13.19936 11.10016 31.29856 7.10144 40.40192-9.00096l5.20192-9.09824c9.09824-16.1024 5.80096-38.20032-7.3984-49.39776l-141.50144-119.3984z" fill="#f59e0b" p-id="11455"></path></svg>