<svg t="1739102326941" class="icon" viewBox="0 0 1024 1024" version="1.1" xmlns="http://www.w3.org/2000/svg" p-id="2298" width="200" height="200"><path d="M896 277.333333a21.333333 21.333333 0 0 0-21.333333-21.333333h-42.666667a21.333333 21.333333 0 0 0-21.333333 21.333333V469.333333H270.08l146.773333-146.773333a20.906667 20.906667 0 0 0 0-29.866667l-30.293333-30.293333a21.333333 21.333333 0 0 0-30.293333 0l-218.88 218.88a32.853333 32.853333 0 0 0-9.386667 22.613333v16.213334a32 32 0 0 0 9.386667 22.613333l219.306666 218.88a21.333333 21.333333 0 0 0 30.293334 0l30.293333-29.866667a21.333333 21.333333 0 0 0 0-30.293333L270.08 554.666667H810.666667a85.333333 85.333333 0 0 0 85.333333-85.333334zM227.413333 512z" p-id="2299"></path></svg>