<svg t="1736045163192" class="icon" viewBox="0 0 1024 1024" version="1.1" xmlns="http://www.w3.org/2000/svg" p-id="11086" width="200" height="200"><path d="M964.227657 1024H59.889371a45.758171 45.758171 0 0 1 0-91.487086h904.221258A45.758171 45.758171 0 0 1 964.227657 1024z m-618.232686-178.176a44.500114 44.500114 0 0 1-33.323885 15.389257H76.068571a45.494857 45.494857 0 0 1-45.2608-45.758171v-237.392457a45.348571 45.348571 0 0 1 12.814629-34.6112L558.548114 22.9376a1.345829 1.345829 0 0 0 0.438857-0.438857 74.488686 74.488686 0 0 1 102.4-3.6864l198.012343 200.177371a1.462857 1.462857 0 0 0 0.438857 0.438857 76.770743 76.770743 0 0 1 4.973715 101.873372z m283.560229-729.936457a28.320914 28.320914 0 0 0-36.483657 1.404343l-471.712914 476.891428v175.542857H293.449143L767.005257 291.0208a29.257143 29.257143 0 0 0-1.082514-37.390629z"  p-id="11087"></path></svg>