<svg t="1735788807799" class="icon" viewBox="0 0 1024 1024" version="1.1" xmlns="http://www.w3.org/2000/svg" p-id="23360" width="200" height="200"><path d="M679.1424 632.0128c51.04128 99.4816 280.73984 124.34944 280.73984 124.34944-51.04128-24.86784-76.55936-124.34944-76.55936-124.34944h-204.18048zM244.33664 84.88448v497.3824c0 41.20064 35.18464 75.17696 77.46048 75.17696h612.56192c42.30144 0 77.48096-33.97632 77.48096-75.17696V84.88448c0-41.18528-35.17952-71.59808-77.48096-71.59808H321.79712c-42.28096 0-77.46048 30.4128-77.46048 71.59808z m536.8832 248.68352c0-27.4688 22.84032-49.7408 51.05152-49.7408 28.20096 0 51.05152 22.272 51.05152 49.7408 0 27.47904-22.8608 49.76128-51.05152 49.76128s-51.05152-22.27712-51.05152-49.76128z m-204.20096 0c0-27.4688 22.85056-49.7408 51.072-49.7408 28.20096 0 51.05152 22.272 51.05152 49.7408 0 27.47904-22.8608 49.76128-51.05152 49.76128-28.22144 0-51.072-22.27712-51.072-49.76128z m-204.15488 0c0-27.4688 22.83008-49.7408 51.05152-49.7408 28.19072 0 51.05152 22.272 51.05152 49.7408 0 27.47904-22.8608 49.76128-51.05152 49.76128-28.21632 0-51.05152-22.27712-51.05152-49.76128z" p-id="23361"></path><path d="M265.47712 714.6752c-42.28096 0-77.46048-33.97632-77.46048-75.17696V380.62592h-86.0672c-33.14176 0-60.70784 23.82336-60.70784 56.09984v389.72928c0 32.2816 27.56608 58.90048 60.70784 58.90048h33.68448c-8.7552 24.46336-26.64448 64.33792-53.6832 77.5168 0 0 148.59776-16.09728 205.75232-77.5168h294.22592c33.13152 0 60.6976-26.61888 60.6976-58.90048v-110.04928a103.72096 103.72096 0 0 1-1.64864-1.73056h-375.5008z" p-id="23362"></path></svg>