<svg t="1735781582390" class="icon" viewBox="0 0 1024 1024" version="1.1" xmlns="http://www.w3.org/2000/svg" p-id="6750" id="mx_n_1735781582390" width="200" height="200"><path d="M746.667 64a170.667 170.667 0 0 1 170.666 170.667v554.666A170.667 170.667 0 0 1 746.667 960h-448A170.667 170.667 0 0 1 128 789.333V234.667A170.667 170.667 0 0 1 298.667 64h448z m0 74.667h-448a96 96 0 0 0-95.894 91.477l-0.106 4.523v554.666a96 96 0 0 0 91.477 95.894l4.523 0.106h448a96 96 0 0 0 95.893-91.477l0.107-4.523V234.667a96 96 0 0 0-91.478-95.894l-4.522-0.106z" p-id="6751"></path><path d="M224 325.333a37.333 37.333 0 0 1 3.072 74.539L224 400H106.667a37.333 37.333 0 0 1-3.072-74.539l3.072-0.128H224zM224 624a37.333 37.333 0 0 1 3.072 74.539l-3.072 0.128H106.667a37.333 37.333 0 0 1-3.072-74.539l3.072-0.128H224z m469.333-277.333a37.333 37.333 0 0 1 37.206 34.261l0.128 3.072v256a37.333 37.333 0 0 1-74.539 3.072L656 640V384c0-20.608 16.725-37.333 37.333-37.333z" p-id="6752"></path></svg>